<?xml version="1.0" encoding="utf-8"?>
<!-- Generator: Adobe Illustrator 16.0.0, SVG Export Plug-In . SVG Version: 6.00 Build 0)  -->
<!DOCTYPE svg PUBLIC "-//W3C//DTD SVG 1.1//EN" "http://www.w3.org/Graphics/SVG/1.1/DTD/svg11.dtd">
<svg version="1.1" id="Layer_1" xmlns="http://www.w3.org/2000/svg" xmlns:xlink="http://www.w3.org/1999/xlink" x="0px" y="0px"
	 width="612px" height="792px" viewBox="0 0 612 792" enable-background="new 0 0 612 792" xml:space="preserve">
<g>
	<g>
		<path d="M73.75,168.75c155.522,0,311.044,0,466.565,0c0,152.271,0,304.543,0,456.813c-155.521,0-311.043,0-466.565,0
			C73.75,473.293,73.75,321.021,73.75,168.75z M224.374,577.163c-0.23,0.203-0.459,0.406-0.689,0.609
			c-1.277-0.887-2.557-1.771-3.833-2.659c-8.704-6.062-18.07-11.377-25.954-18.364c-11.664-10.339-22.425-21.72-33.3-32.919
			c-20.784-21.405-32.838-47.638-40.007-76.093c-4.98-19.768-3.676-40.169-0.484-59.995c6.026-37.428,20.084-71.459,47.467-98.811
			c5.71-5.704,11.665-11.198,17.84-16.393c8.414-7.079,17.239-13.617,27.524-17.891c33.278-13.83,67.659-20.047,103.623-14.744
			c16.646,2.455,33.015,6.398,47.185,15.87c12.403,8.292,24.408,17.257,36.024,26.626c10.985,8.86,21.863,17.986,29.972,29.837
			c10.596,15.486,20.347,31.348,26.6,49.247c3.804,10.891,3.872,22.495,7.501,33.352c0.212,0.633-0.162,1.454-0.228,2.19
			c-0.162,1.844-0.411,3.688-0.429,5.534c-0.027,2.857,0.413,5.748,0.11,8.565c-0.559,5.194-1.957,10.325-2.214,15.521
			c-0.594,12.041-4.73,22.996-10.091,33.459c-7.082,13.823-17.026,25.714-26.567,37.908c-14.378,18.377-32.812,30.491-54.769,37.474
			c-10.8,3.435-21.843,6.098-32.745,9.219c-2.986,0.855-5.936,1.938-8.754,3.239c-1.413,0.651-2.492,2.027-3.722,3.075
			c0.185,0.315,0.369,0.631,0.555,0.946c2.562-0.486,5.124-0.973,8.58-1.628c-1.182,1.776-1.79,2.69-2.347,3.527
			c9.664-1.952,19.259-3.892,28.854-5.83c0.151,0.51,0.304,1.019,0.455,1.528c-1.157,0.499-2.271,1.192-3.479,1.462
			c-4.503,1.003-9.056,1.778-13.555,2.799c-12.024,2.728-24.002,5.615-36.374,6.478c-4.838,0.337-9.529,1.637-14.038,5.215
			c2.057,0.296,3.489,0.602,4.934,0.687c2.244,0.132,4.534-0.112,6.733,0.242c1.379,0.223,2.629,1.249,3.938,1.915
			c-1.294,0.736-2.523,1.911-3.896,2.116c-2.574,0.383-5.291-0.122-7.843,0.331c-4.539,0.807-9,2.051-13.494,3.112
			c0.004,0.507,0.009,1.014,0.014,1.52c1.372,0.698,2.678,1.696,4.132,2.013c1.618,0.351,3.37,0.081,5.449,0.081
			c-0.463,1.255-1.211,2.355-0.946,2.722c1.4,1.93,2.85,3.926,4.673,5.423c2.381,1.956,5.101,3.511,7.733,5.146
			c1.034,0.643,2.184,1.332,3.35,1.492c8.254,1.13,16.528,2.099,24.787,3.194c1.538,0.204,3.03,0.747,4.543,1.133
			c-0.066,0.404-0.133,0.809-0.2,1.212c-3.313,0-6.627,0-9.941,0c3.337,1.314,6.769,1.786,10.107,2.628
			c1.073,0.271,1.9,1.52,2.839,2.321c-1.131,0.407-2.241,0.903-3.403,1.19c-0.714,0.176-1.507,0.032-2.265,0.032
			c6.931,3.798,14.447,4.43,22.096,4.791c-6.797,1.613-13.616,3.783-20.286,0.757c-4.338-1.969-8.228-1.257-12.41,0.461
			c2.415,1.094,4.896,1.736,7.413,1.933c3.607,0.282,7.341-0.273,10.841,0.426c12.194,2.438,24.379,1.17,35.959-1.963
			c10.481-2.835,20.479-7.882,30.236-12.848c8.416-4.282,16.843-9.03,24.097-14.994c10.235-8.414,21.364-16.002,29.219-27.112
			c2.884-4.079,6.6-7.57,9.936-11.329c-0.24-0.226-0.481-0.452-0.723-0.679c-0.631,0.535-1.294,1.036-1.888,1.609
			c-3.582,3.465-7.2,6.896-10.705,10.438c-3.131,3.165-6.101,6.489-9.212,9.673c-0.748,0.766-1.743,1.316-2.685,1.862
			c-2.612,1.516-5.354,2.829-7.862,4.498c-2.786,1.854-5.294,4.122-8.062,6.009c-3.695,2.52-7.806,4.502-11.232,7.327
			c-6.397,5.274-14.179,6.508-21.789,8.367c-0.486,0.119-1.07-0.161-1.608-0.255c-0.114-0.362-0.229-0.723-0.343-1.084
			c4.068-1.93,8.149-3.833,12.202-5.797c3.308-1.604,6.827-2.932,9.791-5.033c2.454-1.739,3.979-4.752,6.362-6.636
			c6.163-4.871,12.702-9.267,18.85-14.156c8.001-6.364,16.394-12.418,23.458-19.728c6.625-6.854,11.824-15.105,17.499-22.854
			c8.899-12.154,15.216-25.597,21.118-39.469c6.388-15.012,10.131-30.23,10.137-46.418c0.003-7.606-0.393-15.217-0.783-22.816
			c-0.062-1.204-1.047-2.365-1.623-3.537c-0.827-1.683-1.671-3.358-2.508-5.036c0.338-0.21,0.677-0.419,1.015-0.628
			c0.95,0.281,1.902,0.563,3.194,0.946c-0.295-2.525-0.43-4.627-0.847-6.672c-0.134-0.657-1.051-1.132-1.543-1.744
			c-0.982-1.223-2.514-2.367-2.782-3.745c-3.101-15.902-6.034-31.837-8.921-47.78c-0.265-1.466,0.1-3.046,0.171-4.573
			c0.604-0.044,1.207-0.087,1.811-0.13c3,13.439,6,26.88,8.999,40.319c0.773-1.131,0.956-2.205,0.745-3.195
			c-2.207-10.366-4.581-20.697-6.71-31.078c-5.377-26.231-19.166-48.262-34.802-69.284c-5.706-7.672-12.368-14.631-18.534-21.966
			c-0.538-0.64-1.066-1.808-0.843-2.479c0.902-2.712-0.925-2.558-2.604-3.054c-2.137-0.631-4.242-1.518-6.185-2.608
			c-2.216-1.246-4.207-2.883-6.352-4.266c-1.921-1.239-4.103-2.138-5.843-3.581c-4.488-3.723-8.263-8.665-13.273-11.332
			c-15.866-8.441-32.079-16.252-48.35-23.896c-5.416-2.544-11.414-3.848-17.146-5.718c-0.1,0.301-0.199,0.603-0.299,0.903
			c2.982,1.209,5.966,2.417,8.947,3.625c-0.168,0.52-0.336,1.04-0.505,1.559c-4.123-0.688-8.425-0.853-12.329-2.183
			c-6.13-2.087-12.226-3.274-18.719-2.992c-2.463,0.107-4.977-0.927-7.467-1.44c0.285-0.372,0.57-0.743,0.855-1.115
			c-0.632-0.958-1.264-1.917-1.896-2.875c-0.322,0.168-0.645,0.337-0.966,0.505c0.063,0.873,0.127,1.746,0.205,2.825
			c-1.755,0-3.243-0.022-4.73,0.003c-12.484,0.215-24.996,0.005-37.442,0.806c-8.661,0.557-17.221,2.586-25.847,3.812
			c-17.065,2.423-33.602,6.438-48.651,15.29c-2.354,1.384-4.968,2.334-7.48,3.442c-10.965,4.831-21.003,11.257-29.405,19.689
			c-10.211,10.248-19.651,21.263-29.46,31.914c-1.092,1.186-2.417,2.158-3.635,3.229c-0.28-0.365-0.559-0.729-0.839-1.093
			c24.227-38.465,59.626-61.899,102.689-75.089c-2.002,0.12-3.841,0.454-5.558,1.106c-10.146,3.856-20.259,7.797-30.395,11.68
			c-1.802,0.691-3.656,1.246-5.487,1.863c-0.235-0.498-0.471-0.997-0.707-1.495c4.375-3.016,8.75-6.031,13.125-9.047
			c-0.839-0.252-1.45-0.128-1.932,0.192c-5.914,3.931-11.871,7.799-17.691,11.863c-7.258,5.068-15.035,9.625-21.443,15.624
			c-9.721,9.1-18.696,19.042-27.482,29.069c-3.213,3.667-7.989,6.728-8.034,12.585c-0.002,0.282-0.383,0.707-0.681,0.818
			c-4.617,1.724-6.059,6.135-8.093,9.886c-4.146,7.645-7.967,15.466-12.04,23.446c-0.504-0.479-1.05-0.998-2.259-2.146
			c-0.775,2.705-1.611,4.964-2.047,7.299c-0.682,3.653-0.7,7.468-1.704,11.015c-1.764,6.234-4.671,12.188-6.017,18.49
			c-3.59,16.818-7.359,33.613-7.835,50.964c-0.221,8.081-1.77,16.121-2.621,24.189c-0.835,7.917,0.586,15.606,2.052,23.373
			c1.547,8.196,1.93,16.607,3.294,24.846c0.742,4.48,2.271,8.87,3.82,13.164c0.998,2.764,2.665,5.288,4.056,7.907
			c2.287,4.307,4.38,8.738,6.979,12.85c1.373,2.17,2.496,3.553-1.04,4.122c1.814,3.142,4.469,5.868,4.971,8.946
			c1.68,10.326,8.41,18.208,13.628,26.31c6.793,10.546,16.688,19.104,25.343,28.43c1.222,1.316,2.978,2.139,4.486,3.189
			c0.288-0.338,0.577-0.676,0.865-1.014c-1.28-1.611-2.534-3.243-3.843-4.829c-6.912-8.371-13.917-16.667-20.697-25.145
			c-1.496-1.87-2.207-4.369-3.28-6.578c0.385-0.22,0.77-0.439,1.155-0.659c3.233,1.328,5.042,4.118,6.439,7.157
			c2.043,4.447,5.148,7.78,9.167,10.577c3.144,2.188,5.895,4.982,8.63,7.699c4.29,4.26,8.352,8.751,12.668,12.981
			c1.005,0.985,2.629,1.364,4.001,1.945c8.914,3.778,17.658,7.842,25.415,14.992c-0.25-3.188-0.46-5.873-0.67-8.559
			c2.433,1.959,6.439,2.701,4.759,7.027c8.623,6.042,14.611,8.974,19.651,9.205c-3.227-2.256-5.832-4.077-8.437-5.898
			c0.24-0.498,0.48-0.997,0.72-1.497c2.482,0.953,5.301,1.445,7.376,2.958c4.009,2.922,8.278,4.575,13.181,4.587
			c1.985,0.005,3.33,0.173,4.282,2.499c0.523,1.278,3.21,2.67,4.607,2.397c3.746-0.729,6.16,1.35,8.955,2.915
			c1.982,1.111,4.105,1.973,6.166,2.944c0.303-0.537,0.605-1.074,0.909-1.61c-2.787-1.916-5.413-4.145-8.396-5.677
			c-5.092-2.616-9.553-6.325-10.303-9.4c3.786,1.648,7.537,3.281,11.288,4.914c0.151-0.346,0.302-0.691,0.454-1.037
			c-1.596-1.333-4.25-2.442-4.587-4.041c-0.943-4.472-4.177-6.675-7.328-9.038c-1.261-0.945-2.979-1.28-4.489-1.893
			c0.408,1.399,0.829,2.796,1.207,4.204c0.05,0.184-0.12,0.426-0.29,0.962c-2.758-1.229-5.484-2.445-8.525-3.802
			C224.063,575.802,224.219,576.482,224.374,577.163z M212.487,392.984c1.613-7.892,1.258-8.352-5.859-8.352
			c-10.75,0-21.5,0.057-32.247-0.106c-1.219-0.019-3.451-1.273-3.472-2.003c-0.244-8.712-0.157-17.433-0.157-26.716
			c14.251,0,28.281,0,42.223,0c1.101-8.315,1.101-8.314-6.549-8.321c-13.125-0.011-26.249-0.032-39.373-0.025
			c-1.46,0.001-2.92,0.156-4.414,0.242c0,29.888,0,59.416,0,89.042c0.902,0.104,1.51,0.237,2.118,0.237
			c16.624,0.017,33.248,0.069,49.871-0.066c1.347-0.011,3.078-1.012,3.951-2.098c2.964-3.691,5.619-7.63,8.399-11.469
			c3.405-4.702,6.818-9.399,10.378-14.307c0.899,0.959,1.46,1.445,1.887,2.028c5.081,6.939,10.553,13.639,15.069,20.93
			c3.264,5.268,7.466,5.598,12.912,4.738c-0.846-1.265-1.552-2.398-2.335-3.476c-6.82-9.385-13.594-18.807-20.531-28.104
			c-1.587-2.125-1.829-3.7-0.176-5.912c5.748-7.691,11.337-15.502,16.955-23.291c1.033-1.432,1.919-2.968,3.02-4.685
			c-8.404-0.642-8.399-0.638-12.628,5.173c-4.537,6.233-9.085,12.458-14.238,19.523c-0.596-1.088-0.89-1.79-1.324-2.392
			c-4.163-5.764-8.802-11.245-12.394-17.344c-3.175-5.391-7.458-5.707-12.991-4.903c0.529,0.819,0.885,1.433,1.301,2.003
			c6.312,8.665,12.562,17.379,19.002,25.949c1.622,2.158,1.719,3.614,0.033,5.83c-5.356,7.042-10.369,14.344-15.72,21.389
			c-0.886,1.167-2.797,2.176-4.248,2.194c-12.122,0.156-24.248-0.007-36.371,0.097c-2.889,0.025-3.956-0.832-3.906-3.835
			c0.15-9.121,0.033-18.247,0.021-27.372c-0.002-1.447,0-2.895,0-4.602C184.913,392.984,198.633,392.984,212.487,392.984z
			 M383.096,415.937c-9.488,10.895-10.899,12.152-16.294,13.882c-7.161,2.295-14.245,2.283-21.158-0.993
			c-9.646-4.571-15.146-17.274-13.262-24.749c19.5,0,39.141,0,58.743,0c0.896-16.492-11.748-32.117-27.574-34.175
			c-21.32-2.773-34.565,8.952-38.901,26.445c-4.256,17.168,6.007,35.578,21.615,40.453c17.518,5.471,36.141-2.166,42.352-17.525
			c-0.413-0.345-0.83-0.806-1.343-1.099C385.885,417.382,384.454,416.658,383.096,415.937z M323.643,384.587
			c-6.078-11.583-23.176-17.613-39.191-14.077c-15.615,3.448-26.609,17.073-27.31,33.847c-0.584,13.982,9.951,28.044,24.323,32.464
			c15.965,4.91,34.308-0.631,41.904-12.657c-4.621-4.485-4.692-4.489-8.889-0.456c-10.27,9.871-30.02,10.216-40.287,0.702
			c-8.815-8.169-11.567-20.889-6.833-31.58c4.729-10.678,16.313-17.186,28.369-16.223c8.933,0.714,16.363,4.163,21.999,11.424
			C319.775,386.839,321.586,385.785,323.643,384.587z M397.954,391.107c-0.004,0-0.008,0-0.012,0
			c0,13.978,0.144,27.958-0.094,41.933c-0.065,3.878,2.045,3.663,4.636,3.919c3.27,0.324,3.312-1.572,3.307-3.914
			c-0.041-17.598-0.026-35.195-0.035-52.792c-0.005-10.234-0.078-20.468,0.003-30.702c0.024-3.073-1.21-4.095-4.247-4.106
			c-3.137-0.012-3.638,1.345-3.613,4.103C398.021,363.399,397.954,377.253,397.954,391.107z M484.802,273.424
			c0.211-0.168,0.422-0.335,0.633-0.502c-0.312-0.595-0.548-1.248-0.949-1.776c-2.866-3.774-5.784-7.508-8.653-11.281
			c-5.18-6.81-9.939-13.988-15.586-20.385c-11.194-12.682-24.824-21.905-40.179-29.338c-23.669-11.459-47.347-22.477-73.388-27.409
			c-10.38-1.966-20.828-3.029-31.39-2.576c8.256,1.117,16.581,1.767,24.771,3.195c21.006,3.664,41.024,10.542,60.583,18.979
			c21.378,9.222,40.351,21.845,56.216,38.889c7.461,8.015,14.337,16.573,21.491,24.873
			C480.476,268.56,482.65,270.982,484.802,273.424z M384.861,201.943c-32.332-19.502-67.749-17.661-103.22-15.443
			C316.865,185.989,352.018,185.975,384.861,201.943z M274.986,467.483c3.538,0,6.897,0.354,10.154-0.072
			c7.476-0.978,11.434-6.676,10.176-14.096c-1.453-8.567-10.561-13.005-20.33-9.822
			C274.986,451.381,274.986,459.302,274.986,467.483z M247.644,462.918c-3.913,2.924-8.032,4.588-12.398,1.609
			c-1.445-0.987-2.094-3.14-3.107-4.76c0.295-0.349,0.591-0.696,0.887-1.045c5.287,0,10.572,0,15.889,0
			c-0.53-5.708-3.598-8.858-8.475-9.176c-4.585-0.298-8.898,3.097-9.703,7.639c-0.756,4.263,1.945,8.766,6.017,10.031
			C241.429,468.671,245.972,467.041,247.644,462.918z M317.992,458.784c-0.7-5.961-4.12-9.224-9.019-9.211
			c-4.663,0.013-8.706,3.55-9.27,8.111c-0.55,4.446,2.476,8.658,6.954,9.679c4.562,1.038,8.814-0.772,10.181-4.867
			c-4.161,3.372-8.366,5.104-12.761,1.931c-1.391-1.004-1.957-3.149-3.405-5.643C307.329,458.784,312.52,458.784,317.992,458.784z
			 M351.592,458.705c-0.431-5.688-3.907-9.07-8.854-9.115c-4.744-0.043-8.969,3.813-9.311,8.497
			c-0.338,4.618,2.964,8.624,7.778,9.437c4.25,0.717,8.267-1.288,9.028-4.508c-5.771,3.316-9.071,4.006-11.968,1.744
			c-1.511-1.179-2.316-3.26-3.439-4.934c0.299-0.373,0.599-0.747,0.898-1.121C341.008,458.705,346.291,458.705,351.592,458.705z
			 M408.187,462.971c-5.503,3.278-9.556,4.068-12.136,2.015c-1.621-1.292-2.588-3.406-3.848-5.151
			c0.285-0.397,0.57-0.796,0.855-1.192c5.373,0,10.746,0,16.163,0c-0.656-5.658-3.582-8.605-8.395-8.989
			c-4.161-0.331-8.504,2.843-9.482,6.929c-0.996,4.161,1.124,8.532,4.969,10.244C400.514,468.695,405.132,467.417,408.187,462.971z
			 M214.354,450.464c-0.33,0.076-0.66,0.152-0.99,0.229c-1.776,4.142-3.552,8.281-5.674,13.229
			c-2.401-5.464-4.384-9.974-6.366-14.483c-0.42,0.198-0.841,0.396-1.262,0.595c2.434,5.772,4.869,11.544,7.569,17.947
			c2.081-4.871,3.894-9.118,6.166-14.438c2.375,5.25,4.219,9.327,6.487,14.343c2.682-6.597,4.936-12.138,7.189-17.68
			c-0.417-0.181-0.835-0.36-1.253-0.54c-1.891,4.407-3.782,8.814-5.672,13.223c-0.339-0.082-0.679-0.163-1.018-0.245
			C217.805,458.584,216.08,454.523,214.354,450.464z M502.854,299.777c5.741,18.646,11.214,36.42,16.688,54.195
			C516.562,335.346,512.527,317.064,502.854,299.777z M178.639,458.791c-0.002,4.925,4.043,8.909,9.124,8.985
			c5.047,0.077,9.65-4.212,9.688-9.025c0.037-4.785-4.557-9.268-9.506-9.273C182.915,449.471,178.641,453.749,178.639,458.791z
			 M357.348,467.71c0.733-0.422,1.109-0.53,1.115-0.658c0.147-2.851,0.244-5.704,0.369-8.556c0.203-4.626,2.765-7.321,6.839-7.212
			c3.717,0.1,5.092,1.976,5.136,7.084c0.026,3.003,0.005,6.006,0.005,9.009c0.451,0.036,0.903,0.073,1.354,0.109
			c0.209-0.83,0.604-1.663,0.59-2.489c-0.047-2.74-0.182-5.484-0.394-8.217c-0.495-6.36-5.246-8.913-10.748-5.821
			c-0.733,0.412-1.475,0.81-2.182,1.195c-0.584-0.935-1.055-1.685-2.085-3.329C357.348,455.737,357.348,461.57,357.348,467.71z
			 M323.03,450.555c3.387,5.013-0.365,11.517,2.639,16.942c0.648-2.989,0.586-5.969,0.666-8.945c0.088-3.22-1.584-7.229,3.248-7.968
			c-1.146-1.179-3.169-2.393-3.044-3.316c0.222-1.637,1.748-3.096,2.677-4.548c-2.813-1.032-4.283-0.206-4.854,3.08
			C324.081,447.413,323.483,448.972,323.03,450.555z M525.933,443.342c2.463-10.903,1.583-21.799-0.08-32.694
			C523.165,421.53,525.749,432.445,525.933,443.342z M175.555,444.244c-0.054-0.438-0.107-0.877-0.161-1.316
			c-4.271-0.275-8.541-0.539-12.774,0.106c-0.005,0.386-0.01,0.772-0.014,1.157c1.744,0.263,3.488,0.524,5.872,0.882
			c0,7.54,0,14.93,0,22.319c0.421-0.002,0.843-0.005,1.264-0.007c0-7.475,0-14.95,0-22.437
			C172.06,444.668,173.807,444.456,175.555,444.244z M239.011,606.459c0.221-0.31,0.442-0.619,0.663-0.928
			c-5.045-7.344-12.875-10.362-20.554-13.615c-0.214,0.326-0.429,0.652-0.643,0.979
			C225.321,597.416,232.166,601.938,239.011,606.459z M207.539,598.211c5.829,4.934,11.814,9.694,19.714,10.975
			C221.862,603.476,214.561,601.136,207.539,598.211z M377.746,464.998c-0.135,0.458-0.27,0.916-0.404,1.373
			c2.118,0.299,4.39,1.192,6.301,0.695c1.357-0.353,3.373-2.923,3.079-3.896c-0.597-1.975-2.335-3.808-4.017-5.196
			c-1.801-1.485-4.817-2.366-3.291-5.292c1.386-2.655,3.865-1.218,5.925-0.288c0.118,0.054,0.37-0.189,0.56-0.295
			c0.095-0.311,0.189-0.621,0.284-0.931c-1.733-0.43-3.562-1.397-5.17-1.115c-1.236,0.217-3.103,2.038-3.068,3.095
			c0.053,1.684,1.259,3.471,2.354,4.932c0.692,0.925,2.319,1.128,3.07,2.033c0.855,1.03,1.986,2.897,1.586,3.652
			c-0.589,1.111-2.36,1.896-3.757,2.179C380.152,466.154,378.904,465.351,377.746,464.998z M261.25,450.169
			c-2.588,0-5.175,0-7.637,0c0,5.657,0,11.542,0,17.426c0.525,0.021,1.049,0.043,1.574,0.064c0.048-2.684,0.123-5.367,0.138-8.052
			C255.36,453.188,255.672,452.695,261.25,450.169z M220.402,567.321c-1.52-3.981-13.61-13.501-17.469-13.256
			C208.649,559.082,212.82,565.412,220.402,567.321z M524.293,387.528c0.367-0.046,0.733-0.093,1.1-0.14
			c1.273-4.077-2.294-25.046-4.543-26.742C521.998,369.616,523.146,378.572,524.293,387.528z M480.424,254.734
			c-0.42,0.321-0.84,0.642-1.261,0.964c4.4,6.301,8.802,12.603,13.202,18.904c0.275-0.188,0.552-0.375,0.827-0.563
			C488.937,267.604,484.681,261.169,480.424,254.734z M244.348,193.902c7.216,1.897,10.09,1.13,10.615-2.37
			C251.327,192.343,247.838,193.123,244.348,193.902z M89.063,348.236c-3.63,3.583-3.861,6.87-0.676,9.401
			C88.637,354.156,88.85,351.196,89.063,348.236z M426.754,224.246c0.293-0.408,0.587-0.816,0.88-1.224
			c-3.569-2.128-7.139-4.257-10.708-6.385c-0.227,0.374-0.452,0.748-0.678,1.122C419.75,219.92,423.252,222.083,426.754,224.246z
			 M494.21,277.556c1.969,3.244,3.41,5.618,5.064,8.343C501.018,281.914,500.115,280.424,494.21,277.556z M497.204,292.893
			c0.438-0.249,0.876-0.498,1.314-0.747c-1.95-3.038-3.9-6.076-5.851-9.115c-0.371,0.236-0.742,0.473-1.113,0.708
			C493.438,286.791,495.321,289.841,497.204,292.893z"/>
		<path fill-rule="evenodd" clip-rule="evenodd" fill="#FFFFFF" d="M224.374,577.163c-0.155-0.681-0.311-1.361-0.581-2.549
			c3.042,1.356,5.767,2.572,8.525,3.802c0.17-0.536,0.34-0.778,0.29-0.962c-0.378-1.408-0.799-2.805-1.207-4.204
			c1.51,0.612,3.228,0.947,4.489,1.893c3.151,2.363,6.385,4.566,7.328,9.038c0.337,1.599,2.991,2.708,4.587,4.041
			c-0.152,0.346-0.303,0.691-0.454,1.037c-3.751-1.633-7.502-3.266-11.288-4.914c0.75,3.075,5.211,6.784,10.303,9.4
			c2.984,1.532,5.609,3.761,8.396,5.677c-0.303,0.536-0.605,1.073-0.909,1.61c-2.061-0.972-4.184-1.833-6.166-2.944
			c-2.795-1.565-5.209-3.645-8.955-2.915c-1.397,0.272-4.084-1.119-4.607-2.397c-0.952-2.326-2.296-2.494-4.282-2.499
			c-4.903-0.012-9.172-1.665-13.181-4.587c-2.075-1.513-4.894-2.005-7.376-2.958c-0.24,0.5-0.48,0.999-0.72,1.497
			c2.605,1.821,5.209,3.643,8.437,5.898c-5.04-0.231-11.028-3.163-19.651-9.205c1.68-4.326-2.326-5.068-4.759-7.027
			c0.21,2.686,0.421,5.37,0.67,8.559c-7.757-7.15-16.501-11.214-25.415-14.992c-1.372-0.581-2.996-0.96-4.001-1.945
			c-4.317-4.23-8.378-8.722-12.668-12.981c-2.735-2.717-5.487-5.512-8.63-7.699c-4.019-2.797-7.125-6.13-9.167-10.577
			c-1.396-3.039-3.206-5.829-6.439-7.157c-0.385,0.22-0.77,0.439-1.155,0.659c1.073,2.209,1.784,4.708,3.28,6.578
			c6.779,8.478,13.785,16.773,20.697,25.145c1.31,1.586,2.563,3.218,3.843,4.829c-0.288,0.338-0.577,0.676-0.865,1.014
			c-1.508-1.051-3.264-1.873-4.486-3.189c-8.654-9.326-18.55-17.884-25.343-28.43c-5.218-8.102-11.948-15.983-13.628-26.31
			c-0.501-3.078-3.157-5.805-4.971-8.946c3.536-0.569,2.413-1.952,1.04-4.122c-2.599-4.111-4.692-8.543-6.979-12.85
			c-1.391-2.619-3.059-5.144-4.056-7.907c-1.55-4.294-3.078-8.684-3.82-13.164c-1.365-8.238-1.747-16.649-3.294-24.846
			c-1.466-7.767-2.887-15.456-2.052-23.373c0.851-8.068,2.399-16.108,2.621-24.189c0.476-17.351,4.245-34.146,7.835-50.964
			c1.345-6.303,4.252-12.256,6.017-18.49c1.003-3.547,1.022-7.362,1.704-11.015c0.436-2.334,1.271-4.594,2.047-7.299
			c1.209,1.148,1.754,1.667,2.259,2.146c4.073-7.98,7.894-15.801,12.04-23.446c2.035-3.751,3.476-8.162,8.093-9.886
			c0.297-0.111,0.679-0.536,0.681-0.818c0.045-5.858,4.82-8.918,8.034-12.585c8.786-10.027,17.762-19.969,27.482-29.069
			c6.409-6,14.185-10.556,21.443-15.624c5.82-4.064,11.777-7.932,17.691-11.863c0.481-0.32,1.092-0.444,1.932-0.192
			c-4.375,3.016-8.75,6.032-13.125,9.047c0.236,0.499,0.471,0.997,0.707,1.495c1.831-0.617,3.685-1.172,5.487-1.863
			c10.136-3.883,20.249-7.824,30.395-11.68c1.717-0.652,3.555-0.986,5.558-1.106c-43.063,13.19-78.463,36.624-102.689,75.089
			c0.28,0.364,0.559,0.728,0.839,1.093c1.217-1.071,2.542-2.043,3.635-3.229c9.81-10.651,19.25-21.666,29.46-31.914
			c8.402-8.433,18.44-14.858,29.405-19.689c2.513-1.107,5.126-2.058,7.48-3.442c15.05-8.851,31.586-12.866,48.651-15.29
			c8.626-1.226,17.186-3.255,25.847-3.812c12.447-0.8,24.958-0.591,37.442-0.806c1.487-0.025,2.976-0.003,4.73-0.003
			c-0.078-1.079-0.142-1.952-0.205-2.825c0.321-0.168,0.644-0.337,0.966-0.505c0.633,0.959,1.265,1.917,1.896,2.875
			c-0.285,0.372-0.57,0.743-0.855,1.115c2.49,0.513,5.004,1.547,7.467,1.44c6.493-0.282,12.589,0.905,18.719,2.992
			c3.904,1.33,8.206,1.495,12.329,2.183c0.169-0.52,0.337-1.04,0.505-1.559c-2.981-1.208-5.965-2.416-8.947-3.625
			c0.1-0.301,0.199-0.602,0.299-0.903c5.731,1.87,11.729,3.174,17.146,5.718c16.271,7.644,32.483,15.456,48.35,23.896
			c5.011,2.667,8.785,7.609,13.273,11.332c1.74,1.443,3.922,2.342,5.843,3.581c2.145,1.382,4.136,3.02,6.352,4.266
			c1.942,1.091,4.048,1.977,6.185,2.608c1.68,0.496,3.507,0.341,2.604,3.054c-0.224,0.671,0.305,1.839,0.843,2.479
			c6.166,7.335,12.828,14.294,18.534,21.966c15.636,21.022,29.425,43.053,34.802,69.284c2.129,10.381,4.503,20.712,6.71,31.078
			c0.211,0.99,0.028,2.064-0.745,3.195c-2.999-13.439-5.999-26.88-8.999-40.319c-0.604,0.043-1.207,0.086-1.811,0.13
			c-0.071,1.526-0.436,3.106-0.171,4.573c2.887,15.943,5.82,31.877,8.921,47.78c0.269,1.378,1.8,2.522,2.782,3.745
			c0.492,0.612,1.409,1.086,1.543,1.744c0.417,2.045,0.552,4.147,0.847,6.672c-1.292-0.383-2.244-0.665-3.194-0.946
			c-0.338,0.209-0.677,0.418-1.015,0.628c0.837,1.678,1.681,3.354,2.508,5.036c0.576,1.172,1.561,2.333,1.623,3.537
			c0.391,7.6,0.786,15.21,0.783,22.816c-0.006,16.188-3.749,31.406-10.137,46.418c-5.902,13.872-12.219,27.314-21.118,39.469
			c-5.675,7.748-10.874,16-17.499,22.854c-7.064,7.31-15.457,13.363-23.458,19.728c-6.147,4.89-12.687,9.285-18.85,14.156
			c-2.383,1.884-3.908,4.896-6.362,6.636c-2.964,2.102-6.483,3.43-9.791,5.033c-4.053,1.964-8.134,3.867-12.202,5.797
			c0.114,0.361,0.229,0.722,0.343,1.084c0.538,0.094,1.122,0.374,1.608,0.255c7.61-1.859,15.392-3.093,21.789-8.367
			c3.427-2.825,7.537-4.808,11.232-7.327c2.768-1.887,5.275-4.155,8.062-6.009c2.508-1.669,5.25-2.982,7.862-4.498
			c0.941-0.546,1.937-1.097,2.685-1.862c3.111-3.184,6.081-6.508,9.212-9.673c3.505-3.542,7.123-6.973,10.705-10.438
			c0.594-0.573,1.257-1.074,1.888-1.609c0.241,0.227,0.482,0.453,0.723,0.679c-3.336,3.759-7.052,7.25-9.936,11.329
			c-7.854,11.11-18.983,18.698-29.219,27.112c-7.254,5.964-15.681,10.712-24.097,14.994c-9.757,4.966-19.755,10.013-30.236,12.848
			c-11.58,3.133-23.765,4.4-35.959,1.963c-3.5-0.699-7.233-0.144-10.841-0.426c-2.517-0.196-4.998-0.839-7.413-1.933
			c4.183-1.718,8.072-2.43,12.41-0.461c6.67,3.026,13.489,0.856,20.286-0.757c-7.648-0.361-15.165-0.993-22.096-4.791
			c0.758,0,1.551,0.144,2.265-0.032c1.162-0.287,2.272-0.783,3.403-1.19c-0.938-0.802-1.766-2.05-2.839-2.321
			c-3.339-0.842-6.771-1.313-10.107-2.628c3.314,0,6.628,0,9.941,0c0.067-0.403,0.134-0.808,0.2-1.212
			c-1.513-0.386-3.005-0.929-4.543-1.133c-8.259-1.096-16.533-2.064-24.787-3.194c-1.166-0.16-2.315-0.85-3.35-1.492
			c-2.632-1.635-5.352-3.189-7.733-5.146c-1.823-1.497-3.273-3.493-4.673-5.423c-0.265-0.366,0.483-1.467,0.946-2.722
			c-2.079,0-3.831,0.27-5.449-0.081c-1.455-0.316-2.761-1.314-4.132-2.013c-0.005-0.506-0.01-1.013-0.014-1.52
			c4.493-1.062,8.955-2.306,13.494-3.112c2.553-0.453,5.269,0.052,7.843-0.331c1.373-0.205,2.602-1.38,3.896-2.116
			c-1.309-0.666-2.559-1.692-3.938-1.915c-2.199-0.354-4.489-0.11-6.733-0.242c-1.445-0.085-2.877-0.391-4.934-0.687
			c4.508-3.578,9.2-4.878,14.038-5.215c12.372-0.862,24.35-3.75,36.374-6.478c4.499-1.021,9.052-1.796,13.555-2.799
			c1.209-0.27,2.322-0.963,3.479-1.462c-0.151-0.51-0.304-1.019-0.455-1.528c-9.595,1.938-19.189,3.878-28.854,5.83
			c0.557-0.837,1.165-1.751,2.347-3.527c-3.456,0.655-6.019,1.142-8.58,1.628c-0.186-0.315-0.37-0.631-0.555-0.946
			c1.229-1.048,2.309-2.424,3.722-3.075c2.818-1.301,5.768-2.384,8.754-3.239c10.902-3.121,21.945-5.784,32.745-9.219
			c21.957-6.982,40.391-19.097,54.769-37.474c9.541-12.194,19.485-24.085,26.567-37.908c5.36-10.463,9.497-21.418,10.091-33.459
			c0.257-5.195,1.655-10.326,2.214-15.521c0.303-2.817-0.138-5.708-0.11-8.565c0.018-1.846,0.267-3.69,0.429-5.534
			c0.065-0.736,0.439-1.557,0.228-2.19c-3.629-10.857-3.697-22.461-7.501-33.352c-6.253-17.898-16.004-33.76-26.6-49.247
			c-8.108-11.851-18.986-20.978-29.972-29.837c-11.616-9.369-23.621-18.335-36.024-26.626c-14.17-9.472-30.538-13.416-47.185-15.87
			c-35.964-5.303-70.345,0.914-103.623,14.744c-10.285,4.274-19.11,10.812-27.524,17.891c-6.175,5.195-12.13,10.689-17.84,16.393
			c-27.383,27.352-41.441,61.383-47.467,98.811c-3.192,19.826-4.496,40.227,0.484,59.995c7.168,28.455,19.223,54.688,40.007,76.093
			c10.875,11.199,21.636,22.58,33.3,32.919c7.884,6.987,17.25,12.302,25.954,18.364c1.276,0.889,2.556,1.772,3.833,2.659
			C223.915,577.569,224.144,577.366,224.374,577.163z"/>
		<path fill-rule="evenodd" clip-rule="evenodd" fill="#FFFFFF" d="M212.487,392.984c-13.854,0-27.574,0-41.794,0
			c0,1.707-0.002,3.154,0,4.602c0.012,9.125,0.129,18.251-0.021,27.372c-0.049,3.003,1.017,3.86,3.906,3.835
			c12.123-0.104,24.249,0.06,36.371-0.097c1.451-0.019,3.362-1.027,4.248-2.194c5.351-7.045,10.364-14.347,15.72-21.389
			c1.686-2.216,1.588-3.672-0.033-5.83c-6.44-8.57-12.689-17.284-19.002-25.949c-0.416-0.571-0.771-1.185-1.301-2.003
			c5.533-0.804,9.816-0.488,12.991,4.903c3.592,6.099,8.23,11.58,12.394,17.344c0.434,0.602,0.729,1.304,1.324,2.392
			c5.153-7.064,9.701-13.29,14.238-19.523c4.229-5.812,4.224-5.815,12.628-5.173c-1.101,1.717-1.987,3.253-3.02,4.685
			c-5.618,7.789-11.207,15.599-16.955,23.291c-1.653,2.212-1.411,3.787,0.176,5.912c6.938,9.298,13.711,18.72,20.531,28.104
			c0.783,1.077,1.489,2.211,2.335,3.476c-5.446,0.859-9.648,0.529-12.912-4.738c-4.517-7.291-9.989-13.99-15.069-20.93
			c-0.427-0.583-0.988-1.069-1.887-2.028c-3.56,4.907-6.973,9.604-10.378,14.307c-2.78,3.839-5.436,7.777-8.399,11.469
			c-0.873,1.086-2.604,2.087-3.951,2.098c-16.623,0.136-33.248,0.083-49.871,0.066c-0.608,0-1.216-0.133-2.118-0.237
			c0-29.626,0-59.154,0-89.042c1.494-0.085,2.954-0.241,4.414-0.242c13.125-0.007,26.249,0.014,39.373,0.025
			c7.649,0.007,7.649,0.005,6.549,8.321c-13.941,0-27.971,0-42.223,0c0,9.283-0.086,18.004,0.157,26.716
			c0.021,0.73,2.252,1.984,3.472,2.003c10.748,0.163,21.498,0.105,32.247,0.106C213.745,384.633,214.1,385.092,212.487,392.984z"/>
		<path fill-rule="evenodd" clip-rule="evenodd" fill="#FFFFFF" d="M383.096,415.937c1.358,0.722,2.789,1.445,4.178,2.239
			c0.513,0.293,0.93,0.754,1.343,1.099c-6.211,15.359-24.834,22.996-42.352,17.525c-15.608-4.875-25.871-23.285-21.615-40.453
			c4.336-17.493,17.581-29.219,38.901-26.445c15.826,2.058,28.47,17.683,27.574,34.175c-19.603,0-39.243,0-58.743,0
			c-1.884,7.475,3.615,20.178,13.262,24.749c6.913,3.276,13.997,3.288,21.158,0.993
			C372.196,428.089,373.607,426.831,383.096,415.937z M333.218,397.428c16.627,0,32.937,0,49.252,0
			c-0.279-11.196-11.333-20.407-24.477-20.676C346.008,376.506,335.284,383.556,333.218,397.428z"/>
		<path fill-rule="evenodd" clip-rule="evenodd" fill="#FFFFFF" d="M323.643,384.587c-2.057,1.198-3.867,2.252-5.915,3.444
			c-5.636-7.261-13.065-10.71-21.999-11.424c-12.056-0.963-23.641,5.544-28.369,16.223c-4.734,10.691-1.982,23.411,6.833,31.58
			c10.268,9.514,30.018,9.169,40.287-0.702c4.196-4.033,4.268-4.029,8.889,0.456c-7.597,12.026-25.939,17.567-41.904,12.657
			c-14.372-4.42-24.907-18.481-24.323-32.464c0.701-16.774,11.695-30.399,27.31-33.847
			C300.466,366.975,317.564,373.004,323.643,384.587z"/>
		<path fill-rule="evenodd" clip-rule="evenodd" fill="#FFFFFF" d="M397.954,391.107c0-13.854,0.066-27.708-0.056-41.56
			c-0.024-2.758,0.477-4.115,3.613-4.103c3.037,0.012,4.271,1.034,4.247,4.106c-0.081,10.233-0.008,20.468-0.003,30.702
			c0.009,17.597-0.006,35.195,0.035,52.792c0.005,2.342-0.037,4.238-3.307,3.914c-2.591-0.256-4.701-0.041-4.636-3.919
			c0.237-13.975,0.094-27.955,0.094-41.933C397.946,391.107,397.95,391.107,397.954,391.107z"/>
		<path fill-rule="evenodd" clip-rule="evenodd" fill="#FFFFFF" d="M484.802,273.424c-2.151-2.442-4.326-4.865-6.451-7.33
			c-7.154-8.3-14.03-16.858-21.491-24.873c-15.865-17.044-34.838-29.667-56.216-38.889c-19.559-8.437-39.577-15.315-60.583-18.979
			c-8.189-1.428-16.515-2.078-24.771-3.195c10.562-0.453,21.01,0.61,31.39,2.576c26.041,4.932,49.719,15.949,73.388,27.409
			c15.354,7.433,28.984,16.656,40.179,29.338c5.646,6.397,10.406,13.575,15.586,20.385c2.869,3.772,5.787,7.507,8.653,11.281
			c0.401,0.528,0.637,1.181,0.949,1.776C485.224,273.089,485.013,273.256,484.802,273.424z"/>
		<path fill-rule="evenodd" clip-rule="evenodd" fill="#FFFFFF" d="M384.861,201.943c-32.844-15.968-67.996-15.954-103.22-15.443
			C317.112,184.282,352.529,182.44,384.861,201.943z"/>
		<path fill-rule="evenodd" clip-rule="evenodd" fill="#FFFFFF" d="M274.986,467.483c0-8.182,0-16.103,0-23.99
			c9.769-3.183,18.877,1.255,20.33,9.822c1.258,7.42-2.7,13.118-10.176,14.096C281.884,467.838,278.524,467.483,274.986,467.483z
			 M276.375,455.043c0.022,0,0.044,0,0.066,0c0,1.245-0.001,2.49,0,3.734c0.01,7.666,0.01,7.666,7.854,7.053
			c5.9-0.461,9.056-3.555,9.274-9.093c0.273-6.914-2.676-11.043-8.628-11.876c-1.963-0.274-3.972-0.214-5.959-0.33
			c-1.908-0.111-2.687,0.766-2.628,2.667C276.435,449.811,276.375,452.428,276.375,455.043z"/>
		<path fill-rule="evenodd" clip-rule="evenodd" fill="#FFFFFF" d="M247.644,462.918c-1.672,4.123-6.215,5.753-10.89,4.299
			c-4.072-1.266-6.773-5.769-6.017-10.031c0.805-4.542,5.117-7.937,9.703-7.639c4.876,0.317,7.944,3.468,8.475,9.176
			c-5.317,0-10.603,0-15.889,0c-0.296,0.349-0.592,0.696-0.887,1.045c1.013,1.62,1.662,3.772,3.107,4.76
			C239.611,467.506,243.731,465.842,247.644,462.918z M246.609,456.684c-0.827-3.737-2.711-5.238-6.488-5.357
			c-3.922-0.124-5.931,1.33-7.01,5.357C237.652,456.684,242.104,456.684,246.609,456.684z"/>
		<path fill-rule="evenodd" clip-rule="evenodd" fill="#FFFFFF" d="M317.992,458.784c-5.473,0-10.663,0-17.32,0
			c1.448,2.493,2.015,4.639,3.405,5.643c4.395,3.173,8.6,1.441,12.761-1.931c-1.366,4.095-5.619,5.905-10.181,4.867
			c-4.478-1.021-7.503-5.232-6.954-9.679c0.564-4.562,4.607-8.099,9.27-8.111C313.872,449.561,317.292,452.823,317.992,458.784z
			 M301.801,456.791c4.948,0,9.363,0,13.98,0c-0.503-4.256-3.304-5.287-6.589-5.459C305.65,451.146,302.906,452.369,301.801,456.791
			z"/>
		<path fill-rule="evenodd" clip-rule="evenodd" fill="#FFFFFF" d="M351.592,458.705c-5.301,0-10.584,0-15.866,0
			c-0.3,0.374-0.6,0.748-0.898,1.121c1.123,1.674,1.929,3.755,3.439,4.934c2.896,2.262,6.196,1.572,11.968-1.744
			c-0.762,3.22-4.778,5.225-9.028,4.508c-4.814-0.812-8.116-4.818-7.778-9.437c0.342-4.684,4.566-8.54,9.311-8.497
			C347.685,449.635,351.161,453.018,351.592,458.705z M349.649,456.821c-1.402-4.331-4.029-6.012-8.138-5.5
			c-3.062,0.381-5.394,1.672-5.685,5.5C340.473,456.821,344.901,456.821,349.649,456.821z"/>
		<path fill-rule="evenodd" clip-rule="evenodd" fill="#FFFFFF" d="M408.187,462.971c-3.055,4.446-7.673,5.725-11.873,3.854
			c-3.845-1.712-5.965-6.083-4.969-10.244c0.979-4.086,5.321-7.26,9.482-6.929c4.812,0.384,7.738,3.331,8.395,8.989
			c-5.417,0-10.79,0-16.163,0c-0.285,0.396-0.57,0.795-0.855,1.192c1.26,1.745,2.227,3.859,3.848,5.151
			C398.631,467.039,402.684,466.249,408.187,462.971z M407.076,456.786c-0.865-4.011-3.132-5.669-7.218-5.533
			c-3.857,0.128-5.81,1.749-6.31,5.533C398.064,456.786,402.537,456.786,407.076,456.786z"/>
		<path fill-rule="evenodd" clip-rule="evenodd" fill="#FFFFFF" d="M214.354,450.464c1.726,4.06,3.451,8.12,5.177,12.18
			c0.339,0.082,0.679,0.163,1.018,0.245c1.891-4.408,3.781-8.815,5.672-13.223c0.417,0.18,0.835,0.359,1.253,0.54
			c-2.253,5.542-4.507,11.083-7.189,17.68c-2.269-5.016-4.113-9.093-6.487-14.343c-2.272,5.319-4.085,9.566-6.166,14.438
			c-2.701-6.403-5.135-12.175-7.569-17.947c0.42-0.198,0.841-0.396,1.262-0.595c1.982,4.51,3.965,9.02,6.366,14.483
			c2.122-4.948,3.898-9.088,5.674-13.229C213.694,450.616,214.024,450.54,214.354,450.464z"/>
		<path fill-rule="evenodd" clip-rule="evenodd" fill="#FFFFFF" d="M502.854,299.777c9.674,17.288,13.709,35.569,16.688,54.195
			C514.067,336.197,508.595,318.423,502.854,299.777z"/>
		<path fill-rule="evenodd" clip-rule="evenodd" fill="#FFFFFF" d="M178.639,458.791c0.002-5.042,4.275-9.32,9.305-9.313
			c4.949,0.006,9.543,4.488,9.506,9.273c-0.037,4.813-4.641,9.103-9.688,9.025C182.682,467.7,178.637,463.716,178.639,458.791z
			 M187.821,451.356c-4.448,0.017-7.373,2.833-7.42,7.149c-0.05,4.556,3.109,7.515,7.952,7.447c4.172-0.058,7.09-2.986,7.077-7.102
			C195.415,454.45,192.259,451.34,187.821,451.356z"/>
		<path fill-rule="evenodd" clip-rule="evenodd" fill="#FFFFFF" d="M357.348,467.71c0-6.14,0-11.973,0-18.885
			c1.03,1.645,1.501,2.395,2.085,3.329c0.707-0.386,1.448-0.783,2.182-1.195c5.502-3.092,10.253-0.539,10.748,5.821
			c0.212,2.732,0.347,5.477,0.394,8.217c0.015,0.826-0.381,1.659-0.59,2.489c-0.451-0.036-0.903-0.073-1.354-0.109
			c0-3.003,0.021-6.006-0.005-9.009c-0.044-5.108-1.419-6.984-5.136-7.084c-4.074-0.109-6.636,2.586-6.839,7.212
			c-0.125,2.852-0.222,5.705-0.369,8.556C358.457,467.18,358.081,467.288,357.348,467.71z"/>
		<path fill-rule="evenodd" clip-rule="evenodd" fill="#FFFFFF" d="M323.03,450.555c0.453-1.583,1.051-3.142,1.332-4.755
			c0.57-3.286,2.04-4.112,4.854-3.08c-0.929,1.452-2.455,2.911-2.677,4.548c-0.125,0.924,1.897,2.138,3.044,3.316
			c-4.832,0.738-3.16,4.748-3.248,7.968c-0.08,2.977-0.018,5.956-0.666,8.945C322.665,462.071,326.417,455.567,323.03,450.555z"/>
		<path fill-rule="evenodd" clip-rule="evenodd" fill="#FFFFFF" d="M525.933,443.342c-0.184-10.896-2.768-21.812-0.08-32.694
			C527.516,421.543,528.396,432.438,525.933,443.342z"/>
		<path fill-rule="evenodd" clip-rule="evenodd" fill="#FFFFFF" d="M175.555,444.244c-1.748,0.212-3.495,0.424-5.813,0.705
			c0,7.486,0,14.962,0,22.437c-0.421,0.002-0.843,0.005-1.264,0.007c0-7.39,0-14.779,0-22.319c-2.384-0.357-4.127-0.619-5.872-0.882
			c0.004-0.385,0.009-0.771,0.014-1.157c4.234-0.646,8.504-0.382,12.774-0.106C175.448,443.367,175.501,443.806,175.555,444.244z"/>
		<path fill-rule="evenodd" clip-rule="evenodd" fill="#FFFFFF" d="M239.011,606.459c-6.845-4.521-13.689-9.043-20.534-13.564
			c0.214-0.326,0.429-0.652,0.643-0.979c7.679,3.253,15.508,6.271,20.554,13.615C239.453,605.84,239.231,606.149,239.011,606.459z"
			/>
		<path fill-rule="evenodd" clip-rule="evenodd" fill="#FFFFFF" d="M207.539,598.211c7.022,2.925,14.324,5.265,19.714,10.975
			C219.353,607.905,213.367,603.145,207.539,598.211z"/>
		<path fill-rule="evenodd" clip-rule="evenodd" fill="#FFFFFF" d="M377.746,464.998c1.158,0.353,2.406,1.156,3.451,0.946
			c1.396-0.282,3.168-1.067,3.757-2.179c0.4-0.755-0.73-2.622-1.586-3.652c-0.751-0.905-2.378-1.108-3.07-2.033
			c-1.095-1.461-2.301-3.248-2.354-4.932c-0.034-1.057,1.832-2.878,3.068-3.095c1.608-0.282,3.437,0.686,5.17,1.115
			c-0.095,0.31-0.189,0.62-0.284,0.931c-0.189,0.105-0.441,0.349-0.56,0.295c-2.06-0.93-4.539-2.367-5.925,0.288
			c-1.526,2.926,1.49,3.807,3.291,5.292c1.682,1.389,3.42,3.222,4.017,5.196c0.294,0.973-1.722,3.543-3.079,3.896
			c-1.911,0.497-4.183-0.396-6.301-0.695C377.477,465.914,377.611,465.456,377.746,464.998z"/>
		<path fill-rule="evenodd" clip-rule="evenodd" fill="#FFFFFF" d="M261.25,450.169c-5.578,2.526-5.89,3.019-5.925,9.438
			c-0.015,2.685-0.09,5.368-0.138,8.052c-0.525-0.021-1.049-0.043-1.574-0.064c0-5.884,0-11.769,0-17.426
			C256.075,450.169,258.662,450.169,261.25,450.169z"/>
		<path fill-rule="evenodd" clip-rule="evenodd" fill="#FFFFFF" d="M220.402,567.321c-7.583-1.909-11.753-8.239-17.469-13.256
			C206.792,553.82,218.882,563.34,220.402,567.321z"/>
		<path fill-rule="evenodd" clip-rule="evenodd" fill="#FFFFFF" d="M524.293,387.528c-1.147-8.956-2.295-17.912-3.443-26.882
			c2.249,1.696,5.816,22.666,4.543,26.742C525.026,387.435,524.66,387.482,524.293,387.528z"/>
		<path fill-rule="evenodd" clip-rule="evenodd" fill="#FFFFFF" d="M480.424,254.734c4.257,6.435,8.513,12.871,12.769,19.305
			c-0.275,0.188-0.552,0.375-0.827,0.563c-4.4-6.301-8.802-12.603-13.202-18.904C479.584,255.376,480.004,255.055,480.424,254.734z"
			/>
		<path fill-rule="evenodd" clip-rule="evenodd" fill="#FFFFFF" d="M244.348,193.902c3.49-0.779,6.979-1.559,10.615-2.37
			C254.438,195.032,251.564,195.799,244.348,193.902z"/>
		<path fill-rule="evenodd" clip-rule="evenodd" fill="#FFFFFF" d="M89.063,348.236c-0.213,2.96-0.426,5.919-0.676,9.401
			C85.202,355.106,85.433,351.819,89.063,348.236z"/>
		<path fill-rule="evenodd" clip-rule="evenodd" fill="#FFFFFF" d="M426.754,224.246c-3.502-2.163-7.004-4.325-10.506-6.487
			c0.226-0.374,0.451-0.748,0.678-1.122c3.569,2.128,7.139,4.257,10.708,6.385C427.341,223.429,427.047,223.837,426.754,224.246z"/>
		<path fill-rule="evenodd" clip-rule="evenodd" fill="#FFFFFF" d="M494.21,277.556c5.905,2.869,6.808,4.358,5.064,8.343
			C497.62,283.173,496.179,280.799,494.21,277.556z"/>
		<path fill-rule="evenodd" clip-rule="evenodd" fill="#FFFFFF" d="M497.204,292.893c-1.883-3.051-3.766-6.102-5.649-9.153
			c0.371-0.236,0.742-0.472,1.113-0.708c1.95,3.039,3.9,6.077,5.851,9.115C498.08,292.395,497.642,292.644,497.204,292.893z"/>
		<path fill-rule="evenodd" clip-rule="evenodd" d="M333.218,397.428c2.066-13.872,12.79-20.921,24.775-20.676
			c13.144,0.269,24.197,9.48,24.477,20.676C366.154,397.428,349.845,397.428,333.218,397.428z"/>
		<path fill-rule="evenodd" clip-rule="evenodd" d="M276.375,455.043c0-2.615,0.061-5.232-0.021-7.845
			c-0.059-1.901,0.72-2.778,2.628-2.667c1.987,0.116,3.996,0.056,5.959,0.33c5.952,0.833,8.901,4.962,8.628,11.876
			c-0.218,5.538-3.374,8.632-9.274,9.093c-7.844,0.613-7.844,0.613-7.854-7.053c-0.001-1.244,0-2.489,0-3.734
			C276.418,455.043,276.396,455.043,276.375,455.043z"/>
		<path fill-rule="evenodd" clip-rule="evenodd" d="M246.609,456.684c-4.506,0-8.957,0-13.498,0c1.079-4.027,3.088-5.481,7.01-5.357
			C243.898,451.445,245.783,452.946,246.609,456.684z"/>
		<path fill-rule="evenodd" clip-rule="evenodd" d="M301.801,456.791c1.105-4.422,3.85-5.645,7.392-5.459
			c3.285,0.172,6.086,1.203,6.589,5.459C311.164,456.791,306.749,456.791,301.801,456.791z"/>
		<path fill-rule="evenodd" clip-rule="evenodd" d="M349.649,456.821c-4.748,0-9.177,0-13.822,0c0.291-3.828,2.623-5.119,5.685-5.5
			C345.62,450.81,348.247,452.49,349.649,456.821z"/>
		<path fill-rule="evenodd" clip-rule="evenodd" d="M407.076,456.786c-4.539,0-9.012,0-13.527,0c0.5-3.784,2.452-5.405,6.31-5.533
			C403.944,451.117,406.211,452.775,407.076,456.786z"/>
		<path fill-rule="evenodd" clip-rule="evenodd" d="M187.821,451.356c4.438-0.017,7.594,3.094,7.608,7.495
			c0.014,4.115-2.904,7.044-7.077,7.102c-4.842,0.067-8.001-2.892-7.952-7.447C180.448,454.189,183.373,451.373,187.821,451.356z"/>
	</g>
</g>
</svg>
